<?xml version="1.0" encoding="UTF-8" standalone="no"?>
<!DOCTYPE svg PUBLIC "-//W3C//DTD SVG 20010904//EN" "http://www.w3.org/TR/2001/REC-SVG-20010904/DTD/svg10.dtd">
<svg version="1.0" xmlns="http://www.w3.org/2000/svg" width="158.343467pt" height="162.642339pt" viewBox="0 0 158.343467 162.642339" preserveAspectRatio="xMidYMid meet">
<metadata>
Created by potrace 1.12, written by Peter Selinger 2001-2015
</metadata>
<g transform="translate(-0.538080,162.654290) scale(0.100000,-0.100000)" fill="#000000" stroke="none">
<path d="M685 1624 c-275 -45 -518 -237 -621 -492 -47 -117 -59 -180 -59 -317 0 -225 66 -396 214 -557 302 -328 788 -345 1113 -40 327 307 344 828 38 1155 -108 116 -233 192 -385 234 -52 14 -247 25 -300 17z m250 -109 c39 -8 111 -35 161 -59 427 -211 526 -787 197 -1137 -267 -283 -698 -292 -976 -21 -352 344 -260 941 178 1158 144 71 289 91 440 59z"/>
<path d="M312 1274 c-43 -22 -79 -66 -92 -112 -13 -49 -12 -159 4 -200 16 -45 70 -98 107 -106 18 -3 107 -6 200 -6 l169 0 0 -215 0 -215 -41 -45 c-22 -24 -49 -47 -60 -50 -10 -4 -19 -11 -19 -16 0 -11 570 -11 635 0 37 6 42 10 62 61 12 30 23 65 23 78 0 21 -2 20 -31 -13 -53 -60 -38 -74 -297 270 l-114 150 164 5 c149 5 166 7 195 28 49 35 77 103 76 187 -1 81 -21 131 -73 180 l-31 30 -422 2 c-373 3 -426 1 -455 -13z m786 -83 c63 -1 102 -42 102 -106 0 -25 -7 -59 -15 -74 -23 -46 -62 -55 -240 -56 l-160 0 -3 117 -3 117 108 3 c59 2 122 2 138 1 17 -1 49 -2 73 -2z m-398 -122 l0 -121 -174 4 c-170 3 -176 4 -201 28 -25 23 -27 30 -23 92 3 54 8 72 28 93 23 25 24 25 197 25 l173 0 0 -121z m133 -321 c19 -29 83 -118 141 -198 74 -103 101 -146 91 -150 -8 -3 -73 -4 -144 -2 l-131 3 0 200 c0 109 2 199 4 199 2 0 20 -24 39 -52z"/>
</g>
</svg>